<svg width="93" height="93" viewBox="0 0 93 93" fill="none" xmlns="http://www.w3.org/2000/svg">
<path d="M88.35 46.5H58.9C58.3708 46.5051 57.8464 46.6016 57.35 46.7852V26.35C57.35 11.7973 45.5527 0 31 0C16.4473 0 4.65 11.7973 4.65 26.35V54.6809C1.74679 56.7024 0.0114156 60.0123 0 63.55C0.0120527 64.5642 0.168628 65.5715 0.465 66.5415C0.162977 67.165 0.00410583 67.8482 0 68.541V88.35C0 90.9181 2.08188 93 4.65 93H88.35C90.9181 93 93 90.9181 93 88.35V51.15C93 48.5819 90.9181 46.5 88.35 46.5ZM31 71.2783C25.8574 70.5597 21.3073 67.5748 18.6 63.1439V58.2025C21.2764 60.9809 24.5462 63.1184 28.165 64.4552L29.047 64.7652C29.6745 64.9859 30.3348 65.0991 31 65.1C31.6752 65.0995 32.3455 64.9848 32.9824 64.7605L33.8582 64.4505C37.4686 63.1127 40.7303 60.9769 43.4 58.2025V63.1408C40.6747 67.5548 36.134 70.5346 31 71.2783ZM32.7902 61.535L31.93 61.845C31.336 62.0536 30.689 62.0563 30.0933 61.8527L29.202 61.5428C20.4761 58.1519 14.5615 49.945 14.105 40.5945C14.0969 39.5955 14.0265 38.5979 13.8942 37.6077C20.6518 35.5129 26.6159 31.4192 31 25.8664C35.3863 31.4237 41.356 35.519 48.1197 37.6107C47.9891 38.5928 47.9192 39.5821 47.9105 40.5728C47.4418 49.9293 41.5209 58.1379 32.7902 61.535ZM17.7971 67.2994C20.575 70.601 24.3299 72.9349 28.52 73.9644L25.575 78.8686C22.9748 78.3163 20.6687 76.8267 19.096 74.6836C17.7716 72.4662 17.3093 69.8389 17.7971 67.3026V67.2994ZM44.2029 67.2994C44.6915 69.8375 44.2285 72.4666 42.9025 74.6852C41.3305 76.829 39.024 78.3188 36.4235 78.8702L33.4785 73.966C37.6689 72.9372 41.4243 70.6038 44.2029 67.3026V67.2994ZM46.5 54.3802C49.3063 50.3185 50.8732 45.5295 51.0105 40.5945C51.0151 39.834 51.0617 39.0744 51.15 38.3191C52.1764 38.4902 53.2112 38.6066 54.25 38.6679V63.3779L46.5 62.2154V54.3802ZM31 3.1C43.8346 3.11452 54.2355 13.5154 54.25 26.35V35.5462C40.3419 34.503 32.3841 22.5339 32.302 22.4083C32.0163 21.9666 31.5261 21.6999 31 21.7C30.4742 21.7007 29.9846 21.968 29.6995 22.4099C29.6174 22.5354 21.7046 34.4999 7.75155 35.5462V26.35C7.76607 13.516 18.166 3.11537 31 3.1ZM5.07935 58.4086C5.51225 58.8733 6.18572 59.0251 6.77609 58.7911C7.36647 58.557 7.75303 57.9851 7.75 57.35V38.6679C8.79241 38.6062 9.83082 38.4892 10.8608 38.3176C10.9518 39.0784 11 39.8438 11.005 40.61C11.1354 45.5371 12.6973 50.3196 15.5 54.374V62.2092L3.95095 63.9406C3.67908 63.9826 3.41144 64.0484 3.15115 64.1375C3.1372 63.9406 3.1 63.7499 3.1 63.55C3.10667 61.6514 3.81114 59.8215 5.07935 58.4086ZM3.1 88.35V68.541C3.09799 67.7744 3.6567 67.1215 4.4144 67.005L14.9885 65.4255C13.9854 69.1469 14.5405 73.1163 16.5261 76.4196C18.8346 79.5572 22.3188 81.6222 26.1795 82.1407C26.2361 82.1469 26.293 82.15 26.35 82.15C26.894 82.1499 27.3982 81.8646 27.6784 81.3982L31 75.8632L34.3216 81.3982C34.6018 81.8646 35.106 82.1499 35.65 82.15C35.707 82.15 35.7639 82.1469 35.8205 82.1407C39.6819 81.621 43.1663 79.5543 45.4739 76.415C47.4592 73.1121 48.0144 69.1433 47.0115 65.4224L54.25 66.5074V88.35C54.2551 88.8792 54.3516 89.4036 54.5352 89.9H4.65C3.79396 89.9 3.1 89.206 3.1 88.35ZM58.9 89.9C58.044 89.9 57.35 89.206 57.35 88.35V51.15C57.35 50.294 58.044 49.6 58.9 49.6H62V89.9H58.9ZM89.9 88.35C89.9 89.206 89.206 89.9 88.35 89.9H65.1V49.6H88.35C89.206 49.6 89.9 50.294 89.9 51.15V88.35Z" fill="#FE334A"/>
<path d="M82.1497 54.25H71.2997C69.5876 54.25 68.1997 55.6379 68.1997 57.35V62C68.1997 63.7121 69.5876 65.1 71.2997 65.1H82.1497C83.8618 65.1 85.2497 63.7121 85.2497 62V57.35C85.2497 55.6379 83.8618 54.25 82.1497 54.25ZM71.2997 62V57.35H82.1497V62H71.2997Z" fill="#FE334A"/>
<path d="M83.6997 75.95H69.7497C68.8937 75.95 68.1997 76.644 68.1997 77.5C68.1997 78.356 68.8937 79.05 69.7497 79.05H83.6997C84.5557 79.05 85.2497 78.356 85.2497 77.5C85.2497 76.644 84.5557 75.95 83.6997 75.95Z" fill="#FE334A"/>
<path d="M77.4997 82.15H69.7497C68.8937 82.15 68.1997 82.844 68.1997 83.7C68.1997 84.5561 68.8937 85.25 69.7497 85.25H77.4997C78.3557 85.25 79.0497 84.5561 79.0497 83.7C79.0497 82.844 78.3557 82.15 77.4997 82.15Z" fill="#FE334A"/>
</svg>
