<svg width="93" height="93" viewBox="0 0 93 93" fill="none" xmlns="http://www.w3.org/2000/svg">
<path d="M81.3752 68.5875V64.8093C81.3752 58.4156 77.5971 52.7484 71.7846 50.1328L58.9971 44.4656C61.1768 42.1406 62.4846 38.9437 62.4846 35.7469L65.9721 34.0031C67.4252 33.2765 68.4424 31.8234 68.4424 30.0797V29.0625C68.4424 26.5922 66.5533 24.7031 64.083 24.7031H62.6299V14.5312C62.6299 10.4625 59.433 7.2656 55.3643 7.2656H54.6377C52.7486 7.2656 50.8596 6.53904 49.5518 5.08591L47.0814 2.6156L38.7986 5.37654C37.7814 5.66716 36.7643 6.24841 35.8924 6.82966L34.7299 7.70154C31.9689 9.73591 30.5158 12.7875 30.5158 15.9844V24.7031H29.0627C26.5924 24.7031 24.7033 26.5922 24.7033 29.0625V30.225C24.7033 31.8234 25.5752 33.4219 27.1736 34.1484L30.6611 35.8922C30.6611 39.089 31.9689 42.1406 34.1486 44.6109L21.3611 50.2781C15.5486 52.8937 11.7705 58.5609 11.7705 64.9547V90.0937H80.0674C82.5377 90.0937 84.4268 88.2047 84.4268 85.7344V72.6562C84.2814 70.7672 83.1189 69.1687 81.3752 68.5875ZM62.4846 27.6094H63.9377C64.8096 27.6094 65.3908 28.1906 65.3908 29.0625V30.225C65.3908 30.8062 65.1002 31.2422 64.519 31.5328L62.4846 32.55V27.6094ZM30.5158 32.55L28.4814 31.5328C28.0455 31.2422 27.6096 30.8062 27.6096 30.225V29.0625C27.6096 28.1906 28.1908 27.6094 29.0627 27.6094H30.5158V32.55ZM63.2111 49.5515L56.5268 56.2359L49.6971 50.4234C50.4236 50.1328 51.0049 49.8422 51.5861 49.5515L55.9455 46.9359C56.0908 46.9359 56.0908 46.7906 56.2361 46.6453L63.2111 49.5515ZM33.4221 15.9844C33.4221 13.6594 34.4393 11.4797 36.3283 10.1719L37.4908 9.29998C38.0721 8.86404 38.7986 8.4281 39.5252 8.28279L46.0643 6.1031L47.2268 7.2656C49.1158 9.15466 51.7314 10.3172 54.4924 10.3172H55.2189C57.6893 10.3172 59.5783 12.2062 59.5783 14.6765V20.7797C59.1424 20.6343 58.5611 20.489 58.1252 20.489H48.9705C46.9361 20.489 45.0471 19.4719 43.8846 17.8734L43.4486 17.4375C41.9955 15.5484 39.5252 15.1125 37.4908 16.4203L33.4221 19.0359V15.9844ZM36.4736 46.5C36.6189 46.5 36.6189 46.6453 36.7643 46.7906L41.1236 49.4062C41.7049 49.8422 42.4314 50.1328 43.0127 50.2781L36.183 56.0906L29.4986 49.4062L36.4736 46.5ZM45.0471 87.1875H29.0627V71.2031H26.1564V87.1875H14.5314V64.664C14.5314 59.4328 17.583 54.7828 22.3783 52.7484L26.883 50.714L36.183 60.014L45.0471 52.4578V87.1875ZM42.7221 46.9359L38.3627 44.3203C35.3111 42.4312 33.4221 39.2344 33.4221 35.6015V23.3953C33.4221 22.9594 33.7127 22.5234 34.0033 22.2328L39.0893 18.7453C39.6705 18.3094 40.5424 18.4547 41.1236 19.0359L41.5596 19.4718C43.3033 21.7969 46.0643 23.1047 48.9705 23.25H58.1252C58.9971 23.25 59.5783 23.8312 59.5783 24.7031V35.6015C59.5783 39.2344 57.6893 42.4312 54.6377 44.3203L50.2783 46.9359C47.9533 48.389 45.0471 48.389 42.7221 46.9359ZM55.5096 87.1875H47.9533V52.6031L56.8174 60.1594L66.1174 50.8594L70.6221 52.8937C75.4174 54.9281 78.4689 59.7234 78.4689 64.8093V68.2969H75.5627V66.8437C75.5627 64.3734 73.6736 62.4844 71.2033 62.4844H68.2971C65.8268 62.4844 63.9377 64.3734 63.9377 66.8437V68.2969H59.5783C57.108 68.2969 55.2189 70.1859 55.2189 72.6562V85.7344C55.2189 86.1703 55.3643 86.7515 55.5096 87.1875ZM72.6564 66.8437V68.2969H66.8439V66.8437C66.8439 65.9719 67.4252 65.3906 68.2971 65.3906H71.2033C72.0752 65.3906 72.6564 65.9719 72.6564 66.8437ZM81.3752 85.7344C81.3752 86.6062 80.7939 87.1875 79.9221 87.1875H59.5783C58.7064 87.1875 58.1252 86.6062 58.1252 85.7344V78.4687H68.2971V81.375H71.2033V78.4687H81.3752V85.7344ZM81.3752 75.5625H58.1252V72.6562C58.1252 71.7844 58.7064 71.2031 59.5783 71.2031H79.9221C80.7939 71.2031 81.3752 71.7844 81.3752 72.6562V75.5625Z" fill="white"/>
</svg>
