<svg width="93" height="93" viewBox="0 0 93 93" fill="none" xmlns="http://www.w3.org/2000/svg">
<g clip-path="url(#clip0)">
<path d="M2.28068 57.9565C2.79071 58.3099 3.32881 58.6209 3.88958 58.8865C4.56073 59.2291 5.68293 59.8026 5.76198 60.2056C5.86063 60.7348 5.79743 61.2814 5.58063 61.7742C5.34968 62.2702 5.10633 62.6964 4.89863 63.0653C4.32978 64.0666 3.38118 65.7453 4.81338 66.9171C5.14818 67.2271 5.72633 67.675 6.25488 68.0796C5.86647 68.7578 5.69045 69.5369 5.74958 70.3162C5.831 70.9261 6.16011 71.4756 6.65943 71.8352C7.00818 72.0832 7.38173 72.3002 7.74443 72.5095C8.65583 73.0287 9.01233 73.2705 9.13943 73.7495C9.22279 74.38 9.16455 75.0213 8.96893 75.6265C8.87748 76.0295 8.78913 76.431 8.73178 76.8433C8.57815 78.257 8.75757 79.687 9.25568 81.019C9.95132 83.4872 12.1833 85.207 14.7473 85.2505C15.1729 85.2489 15.5971 85.2042 16.0137 85.1172C20.4417 84.0677 24.8051 82.762 29.0817 81.2065C32.5723 83.2556 34.7795 89.4866 35.3546 91.8256C35.5269 92.5164 36.1476 93.001 36.8596 93.0005L75.7646 92.892C76.2577 92.891 76.7209 92.6555 77.0122 92.2577C77.3035 91.8599 77.3881 91.3473 77.2402 90.877C76.8569 89.8268 76.3284 88.8355 75.6701 87.932C75.2978 87.3973 74.9622 86.8381 74.6657 86.258C73.9648 84.8364 73.3796 83.3607 72.9157 81.8451C72.0316 78.8495 71.4179 75.7806 71.0821 72.6753C70.538 68.0381 71.2411 63.3396 73.1188 59.0648C74.2646 56.6939 75.677 54.4615 77.3286 52.4106C78.2586 51.1551 79.2242 49.8547 80.0907 48.4891C81.5804 46.1749 82.6606 43.6214 83.2837 40.9406C83.462 40.1131 82.9434 39.2955 82.1188 39.1042C81.2942 38.9129 80.4686 39.4185 80.2643 40.24C79.7193 42.5797 78.7755 44.8081 77.4743 46.8275C76.6698 48.1001 75.7398 49.3525 74.8393 50.5646C73.0457 52.8025 71.5152 55.2391 70.2776 57.8263C68.1785 62.6072 67.3941 67.8618 68.0053 73.0473C68.3628 76.3406 69.0169 79.5949 69.9599 82.7705C70.4691 84.4379 71.1124 86.0614 71.8834 87.6251C72.2368 88.3237 72.6382 88.9969 73.0847 89.6401L73.1885 89.7951L38.0314 89.9005C37.0012 86.2238 35.1332 82.8358 32.5739 80.0022L33.9689 79.517C35.0105 79.1528 35.7963 78.8784 36.2024 78.742C42.8395 76.6263 46.1596 73.6038 46.0682 69.752C46.0639 69.3406 45.8932 68.9484 45.5951 68.6649C45.297 68.3814 44.8967 68.2306 44.4856 68.247C43.6301 68.2673 42.9529 68.9771 42.9728 69.8326C43.01 71.4183 41.7034 73.7402 35.26 75.7924C34.8384 75.9272 34.02 76.2109 32.949 76.5875C31.7973 76.989 30.3372 77.5005 28.7252 78.0476H28.7144C24.3553 79.646 19.9077 80.9916 15.3937 82.0776C13.95 82.349 12.5466 81.4423 12.2007 80.0146C11.8673 79.1397 11.7364 78.2006 11.8178 77.268C11.8628 76.958 11.9356 76.6325 12.0069 76.3163C12.3368 75.2343 12.3901 74.087 12.1619 72.9791C11.7118 71.5597 10.6678 70.4055 9.30063 69.8156L8.96738 69.6249C9.13445 69.2855 9.33487 68.9636 9.56568 68.6639C9.82538 68.334 9.94016 67.9129 9.88378 67.4969C9.82739 67.0809 9.60466 66.7055 9.26653 66.4567C8.89608 66.1839 8.02653 65.5267 7.37553 65.009C7.44993 64.8742 7.53053 64.7254 7.60958 64.5921C7.85293 64.1643 8.13193 63.6621 8.40163 63.0932C8.89285 62.0075 9.03684 60.7965 8.81393 59.6259C8.44348 57.7349 6.63153 56.808 5.30938 56.1322C4.86394 55.9202 4.43675 55.6719 4.03218 55.3897C3.70002 55.1673 3.38874 54.9151 3.10218 54.6364C3.10218 54.4008 3.35483 53.832 4.53438 52.3951C7.30799 48.8215 9.68565 44.9574 11.6256 40.8709C11.9898 40.2302 12.195 39.5116 12.2239 38.7753C12.0616 37.2157 11.2324 35.8026 9.95008 34.9003C9.32233 34.3237 8.72868 33.7812 8.66203 33.3239C8.67624 32.9441 8.7614 32.5703 8.91313 32.2219C9.16578 31.5585 9.45873 30.9075 9.75013 30.2549C10.4037 28.9086 10.9229 27.5011 11.3001 26.0529C11.6553 24.3157 12.1213 22.6031 12.6951 20.9255C13.9168 17.553 15.8086 14.4627 18.2565 11.8409C21.2201 8.70215 25.8856 6.48255 32.1476 5.23945C36.9375 4.18784 41.7978 3.48744 46.6897 3.14385C48.3357 3.05903 49.9856 3.09426 51.6265 3.24925C52.1791 3.30075 52.7173 3.0535 53.0382 2.60064C53.3591 2.14778 53.4141 1.5581 53.1824 1.05374C52.9506 0.549376 52.4674 0.206951 51.9148 0.155451C50.1237 -0.0086611 48.3232 -0.0444024 46.527 0.0485007C41.4839 0.398421 36.4733 1.11748 31.5354 2.1999C24.5464 3.5949 19.4671 6.04545 16.0013 9.70965C13.2645 12.6353 11.149 16.0853 9.78268 19.8513C9.15454 21.684 8.64457 23.555 8.25593 25.453C7.92465 26.6702 7.47938 27.8534 6.92603 28.987C6.61603 29.6923 6.29673 30.3975 6.01773 31.1307C5.66497 31.9502 5.52015 32.8441 5.59613 33.7331C5.91676 35.1167 6.72093 36.3402 7.86378 37.1834C8.62328 37.8794 9.12393 38.3692 9.13013 38.797C9.07371 39.0323 8.98504 39.2586 8.86663 39.4697C7.01088 43.3781 4.73665 47.0737 2.08383 50.4917C0.961629 51.8604 -0.216371 53.4553 0.0300792 55.0518C0.360144 56.2828 1.17112 57.3295 2.28068 57.9565Z" fill="#FE334A"/>
<path d="M18.5037 23.078C19.4371 20.4902 20.8838 18.1177 22.7569 16.103C24.823 13.9159 28.3958 12.3055 33.3775 11.315C34.2173 11.1485 34.7631 10.3328 34.5966 9.49299C34.4301 8.65321 33.6143 8.10741 32.7745 8.27391C27.1496 9.39301 23.0219 11.3088 20.5047 13.9686C18.3418 16.2901 16.6714 19.0255 15.5943 22.01C15.0725 23.5585 14.6475 25.1379 14.3218 26.7391L17.3489 27.4102C17.646 25.9441 18.0316 24.4974 18.5037 23.078Z" fill="#FE334A"/>
<path d="M50.9315 8.68002L50.0015 13.3176C49.1049 13.612 48.2323 13.9747 47.3913 14.4026L43.4558 11.7676C42.2262 10.9623 40.6 11.1313 39.5622 12.1722L36.9892 14.7436C35.9279 15.7856 35.7561 17.4345 36.58 18.6729L39.2026 22.5897C38.7747 23.4308 38.412 24.3034 38.1176 25.1999L33.4862 26.1299C32.039 26.4222 30.9988 27.6946 31 29.171V32.829C30.999 34.3029 32.0359 35.5738 33.48 35.8686L38.1176 36.7986C38.412 37.6951 38.7747 38.5677 39.2026 39.4088L36.5676 43.3442C35.7623 44.5739 35.9313 46.2 36.9722 47.2378L39.5452 49.8108C40.589 50.8673 42.2343 51.0381 43.4729 50.2185L47.3897 47.5959C48.2307 48.0237 49.1034 48.3865 49.9999 48.6809L50.9299 53.3123C51.2216 54.7601 52.4941 55.801 53.971 55.8H57.629C59.1029 55.8011 60.3738 54.7642 60.6686 53.32L61.5986 48.6824C62.4951 48.388 63.3677 48.0253 64.2088 47.5974L68.1442 50.2324C69.3739 51.0377 71 50.8687 72.0378 49.8279L74.6093 47.2564C75.6706 46.2144 75.8423 44.5655 75.0185 43.3272L72.3959 39.4103C72.8237 38.5693 73.1865 37.6966 73.4809 36.8001L78.1123 35.8701C79.0322 35.6841 79.8176 35.0898 80.2466 34.255L82.5825 35.8205C83.0332 36.1044 83.5548 36.2554 84.0875 36.2561C84.8306 36.2562 85.543 35.96 86.0669 35.433L88.1284 33.3715C89.0658 32.4293 89.2164 30.9596 88.4895 29.8468L86.49 26.8553C86.78 26.2724 87.0307 25.6707 87.2402 25.0542L90.7479 24.3552C92.0602 24.0973 93.005 22.9445 93 21.607V18.693C93.0047 17.3606 92.0666 16.2108 90.7603 15.948L87.2371 15.2458C87.0292 14.6292 86.7796 14.0274 86.49 13.4447L88.5205 10.4176C89.2241 9.30887 89.063 7.8602 88.133 6.93317L86.0715 4.87167C85.1295 3.93361 83.6595 3.78298 82.5468 4.51052L79.5553 6.51002C78.9724 6.21999 78.3707 5.96936 77.7542 5.75982L77.0536 2.25217C76.7959 0.940366 75.6439 -0.00426174 74.307 1.75957e-05H71.393C70.0606 -0.00468444 68.9107 0.933472 68.648 2.23977L67.9458 5.76292C67.3291 5.97233 66.7273 6.22349 66.1447 6.51467L63.1176 4.48417C62.0086 3.78178 60.5607 3.94279 59.6332 4.87167L58.2382 6.26667C58.0377 6.22487 57.8337 6.20255 57.629 6.20002H53.971C52.4971 6.19898 51.2262 7.23588 50.9315 8.68002ZM74.6279 14.756L73.904 14.0322C76.5906 14.3918 78.7275 16.4634 79.1703 19.1376C79.6131 21.8118 78.258 24.4616 75.8307 25.668L73.4778 25.203C73.1834 24.3065 72.8206 23.4339 72.3928 22.5928L75.0278 18.6574C75.8359 17.4281 75.6689 15.8001 74.6279 14.7607V14.756ZM61.6544 7.22922L65.1977 9.61002C65.6945 9.94322 66.3388 9.96071 66.8531 9.65497C67.7403 9.13277 68.6946 8.73385 69.6896 8.46922C70.2581 8.31568 70.6905 7.85325 70.8056 7.27572L71.6379 3.10002H74.0621L74.8945 7.28502C75.0095 7.86255 75.4419 8.32498 76.0105 8.47852C77.0054 8.74315 77.9597 9.14207 78.847 9.66427C79.363 9.96724 80.0073 9.94612 80.5024 9.61002L84.0457 7.23232L85.7662 8.95282L83.39 12.4977C83.0568 12.9946 83.0393 13.6388 83.3451 14.1531C83.8673 15.0403 84.2662 15.9946 84.5308 16.9896C84.6843 17.5581 85.1468 17.9905 85.7243 18.1056L89.9093 18.9379V21.3621L85.7321 22.1945C85.1545 22.3095 84.6921 22.742 84.5386 23.3105C84.2739 24.3054 83.875 25.2597 83.3528 26.147C83.0471 26.6612 83.0646 27.3055 83.3978 27.8024L85.7755 31.3457L84.055 33.0662L80.6 30.7551V29.171C80.6002 28.2635 80.2038 27.4012 79.515 26.8104C82.2438 24.1816 83.1 20.1576 81.6777 16.6456C80.2555 13.1336 76.8406 10.8392 73.0515 10.85C72.1144 10.8559 71.1839 11.0086 70.2941 11.3026C69.5367 11.1923 68.7652 11.362 68.1241 11.78L64.2103 14.4026C63.3693 13.9747 62.4966 13.612 61.6001 13.3176L60.6701 8.68622C60.6427 8.56203 60.6069 8.43982 60.5632 8.32042L61.6544 7.22922ZM52.855 14.8444L53.971 9.30002H57.629L58.7435 14.849C58.8593 15.425 59.2908 15.8859 59.8579 16.0394C61.1386 16.3847 62.3688 16.8953 63.5175 17.5584C64.0293 17.8553 64.6656 17.8349 65.1574 17.5057L69.8477 14.3685L72.4455 16.9524L69.299 21.6473C68.9698 22.1391 68.9493 22.7753 69.2463 23.2872C69.9094 24.4359 70.42 25.6661 70.7653 26.9468C70.9188 27.5138 71.3797 27.9453 71.9557 28.0612L77.5 29.1695V32.829L71.951 33.9435C71.3751 34.0593 70.9141 34.4909 70.7606 35.0579C70.4154 36.3386 69.9047 37.5688 69.2416 38.7175C68.9447 39.2293 68.9651 39.8656 69.2943 40.3574L72.4315 45.0477L69.8477 47.6455L65.1527 44.499C64.6609 44.1698 64.0247 44.1494 63.5128 44.4463C62.3641 45.1094 61.1339 45.62 59.8533 45.9653C59.2862 46.1188 58.8547 46.5797 58.7388 47.1557L57.629 52.7H53.971L52.8566 47.151C52.7407 46.5751 52.3092 46.1142 51.7421 45.9606C50.4615 45.6154 49.2313 45.1047 48.0826 44.4416C47.5707 44.1447 46.9344 44.1651 46.4427 44.4943L41.7524 47.6315L39.1546 45.0477L42.3011 40.3527C42.6302 39.861 42.6507 39.2247 42.3538 38.7128C41.6906 37.5641 41.18 36.3339 40.8348 35.0533C40.6812 34.4862 40.2203 34.0547 39.6444 33.9388L34.1 32.829V29.171L39.649 28.0566C40.2249 27.9407 40.6859 27.5092 40.8394 26.9421C41.1846 25.6615 41.6953 24.4313 42.3584 23.2826C42.6553 22.7707 42.6349 22.1344 42.3057 21.6427L39.1685 16.9524L41.7524 14.3546L46.4473 17.5011C46.9391 17.8302 47.5753 17.8507 48.0872 17.5538C49.2359 16.8906 50.4661 16.38 51.7468 16.0348C52.3114 15.8792 52.7402 15.4187 52.855 14.8444Z" fill="#FE334A"/>
<path d="M55.7997 41.85C61.792 41.85 66.6497 36.9923 66.6497 31C66.6497 25.0077 61.792 20.15 55.7997 20.15C49.8074 20.15 44.9497 25.0077 44.9497 31C44.9565 36.9895 49.8102 41.8432 55.7997 41.85ZM55.7997 23.25C60.0799 23.25 63.5497 26.7198 63.5497 31C63.5497 35.2802 60.0799 38.75 55.7997 38.75C51.5195 38.75 48.0497 35.2802 48.0497 31C48.0548 26.7219 51.5216 23.2551 55.7997 23.25Z" fill="#FE334A"/>
<path d="M55.7995 32.55C56.6556 32.55 57.3495 31.8561 57.3495 31C57.3495 30.144 56.6556 29.45 55.7995 29.45C54.9435 29.45 54.2495 30.144 54.2495 31C54.2495 31.8561 54.9435 32.55 55.7995 32.55Z" fill="#FE334A"/>
<path d="M13.9499 34.1C14.8059 34.1 15.4999 33.406 15.4999 32.55C15.4999 31.694 14.8059 31 13.9499 31C13.0939 31 12.3999 31.694 12.3999 32.55C12.3999 33.406 13.0939 34.1 13.9499 34.1Z" fill="#FE334A"/>
</g>
<defs>
<clipPath id="clip0">
<rect width="93" height="93" fill="white"/>
</clipPath>
</defs>
</svg>
