<svg width="93" height="93" viewBox="0 0 93 93" fill="none" xmlns="http://www.w3.org/2000/svg">
<path d="M88.6406 11.625C89.026 11.625 89.3956 11.4719 89.6681 11.1994C89.9407 10.9269 90.0938 10.5573 90.0938 10.1719V4.35938C90.0938 3.97398 89.9407 3.60437 89.6681 3.33186C89.3956 3.05935 89.026 2.90625 88.6406 2.90625H4.35938C3.97398 2.90625 3.60437 3.05935 3.33186 3.33186C3.05935 3.60437 2.90625 3.97398 2.90625 4.35938V10.1719C2.90625 10.5573 3.05935 10.9269 3.33186 11.1994C3.60437 11.4719 3.97398 11.625 4.35938 11.625H5.8125V55.2188H4.35938C3.97398 55.2188 3.60437 55.3718 3.33186 55.6444C3.05935 55.9169 2.90625 56.2865 2.90625 56.6719V62.4844C2.90625 62.8698 3.05935 63.2394 3.33186 63.5119C3.60437 63.7844 3.97398 63.9375 4.35938 63.9375H14.4194L11.7282 70.6626C11.6398 70.8831 11.6068 71.1221 11.6322 71.3583C11.6576 71.5946 11.7405 71.8211 11.8738 72.0179C12.007 72.2146 12.1865 72.3757 12.3964 72.487C12.6064 72.5983 12.8405 72.6564 13.0781 72.6562H20.3438V85.7344C20.3438 86.8906 20.803 87.9994 21.6206 88.8169C22.4381 89.6345 23.5469 90.0938 24.7031 90.0938H30.5156C31.6718 90.0938 32.7806 89.6345 33.5982 88.8169C34.4157 87.9994 34.875 86.8906 34.875 85.7344V72.6562H42.1406C42.3783 72.6564 42.6123 72.5983 42.8223 72.487C43.0323 72.3757 43.2117 72.2146 43.345 72.0179C43.4782 71.8211 43.5612 71.5946 43.5866 71.3583C43.6119 71.1221 43.579 70.8831 43.4906 70.6626L40.7994 63.9375H78.4688V78.7361C77.4992 79.0789 76.6821 79.7534 76.1617 80.6404C75.6414 81.5274 75.4514 82.5698 75.6253 83.5834C75.7992 84.5969 76.3258 85.5164 77.112 86.1792C77.8983 86.842 78.8935 87.2056 79.9219 87.2056C80.9502 87.2056 81.9455 86.842 82.7317 86.1792C83.518 85.5164 84.0446 84.5969 84.2185 83.5834C84.3924 82.5698 84.2024 81.5274 83.682 80.6404C83.1617 79.7534 82.3445 79.0789 81.375 78.7361V63.9375H88.6406C89.026 63.9375 89.3956 63.7844 89.6681 63.5119C89.9407 63.2394 90.0938 62.8698 90.0938 62.4844V56.6719C90.0938 56.2865 89.9407 55.9169 89.6681 55.6444C89.3956 55.3718 89.026 55.2188 88.6406 55.2188H87.1875V11.625H88.6406ZM79.9219 84.2812C79.6345 84.2812 79.3535 84.196 79.1146 84.0364C78.8756 83.8767 78.6893 83.6497 78.5794 83.3842C78.4694 83.1187 78.4406 82.8265 78.4967 82.5446C78.5527 82.2628 78.6911 82.0038 78.8944 81.8006C79.0976 81.5974 79.3565 81.459 79.6384 81.4029C79.9203 81.3469 80.2124 81.3756 80.478 81.4856C80.7435 81.5956 80.9704 81.7819 81.1301 82.0208C81.2898 82.2598 81.375 82.5407 81.375 82.8281C81.375 83.2135 81.2219 83.5831 80.9494 83.8556C80.6769 84.1282 80.3073 84.2812 79.9219 84.2812ZM5.8125 5.8125H87.1875V8.71875H5.8125V5.8125ZM5.8125 61.0312V58.125H16.7444L15.5819 61.0312H5.8125ZM21.7969 27.6094V24.5113L23.8966 25.9121C24.1355 26.0714 24.4161 26.1563 24.7031 26.1562C24.8379 26.1563 24.9719 26.1372 25.1013 26.0996L33.4219 23.7237V27.6094C33.4219 28.7656 32.9626 29.8744 32.145 30.6919C31.3275 31.5095 30.2187 31.9688 29.0625 31.9688H26.1562C25.0001 31.9688 23.8912 31.5095 23.0737 30.6919C22.2562 29.8744 21.7969 28.7656 21.7969 27.6094ZM21.871 21.0703C22.0423 20.0567 22.5663 19.1363 23.3504 18.4716C24.1345 17.8069 25.1283 17.4406 26.1562 17.4375H29.0625C30.0324 17.441 30.9735 17.7679 31.7367 18.3664C32.5 18.9649 33.0418 19.8008 33.2766 20.7419L24.9502 23.1221L21.871 21.0703ZM24.8949 34.875L20.5879 41.3341L23.0059 42.9471L26.1562 38.2172V45.0469H29.0625V38.2172L32.2129 42.9427L34.6309 41.3298L30.3238 34.875H36.3281C36.7135 34.875 37.0831 35.0281 37.3556 35.3006C37.6282 35.5731 37.7812 35.9427 37.7812 36.3281C37.7812 36.7135 37.9343 37.0831 38.2069 37.3556C38.4794 37.6282 38.849 37.7812 39.2344 37.7812H42.639C42.934 37.7808 43.2219 37.6906 43.4644 37.5226L51.8925 31.6956L53.9531 33.7546L44.5688 40.6875H36.3281C35.9427 40.6875 35.5731 40.8406 35.3006 41.1131C35.0281 41.3856 34.875 41.7552 34.875 42.1406V49.4062H20.3438V42.1406H17.4375V55.2188H14.5312V39.2344C14.5312 38.0782 14.9905 36.9694 15.8081 36.1518C16.6256 35.3343 17.7344 34.875 18.8906 34.875H24.8949ZM20.3438 52.3125H23.25V55.2188H20.3438V52.3125ZM26.1562 52.3125H29.0625V55.2188H26.1562V52.3125ZM31.9688 52.3125H34.875V55.2188H31.9688V52.3125ZM23.25 85.7344V72.6562H26.1562V87.1875H24.7031C24.3177 87.1875 23.9481 87.0344 23.6756 86.7619C23.4031 86.4894 23.25 86.1198 23.25 85.7344ZM31.9688 85.7344C31.9688 86.1198 31.8157 86.4894 31.5431 86.7619C31.2706 87.0344 30.901 87.1875 30.5156 87.1875H29.0625V72.6562H31.9688V85.7344ZM15.2244 69.75L19.8744 58.125H35.3444L39.9944 69.75H15.2244ZM87.1875 61.0312H39.6369L38.4744 58.125H87.1875V61.0312ZM84.2812 55.2188H37.7812V43.5938H45.0469C45.3584 43.5926 45.6612 43.4906 45.91 43.3031L57.0366 35.0828C57.2047 34.9586 57.344 34.7995 57.445 34.6166C57.546 34.4336 57.6064 34.231 57.622 34.0226C57.6376 33.8142 57.608 33.6049 57.5353 33.4089C57.4626 33.2129 57.3485 33.035 57.2008 32.8871L56.0485 31.7348L67.4453 20.3438H78.4688V17.4375H70.3516L72.2305 15.5586L70.1758 13.5039L66.2422 17.4375H55.2188V20.3438H63.3359L53.9938 29.6859L53.0899 28.7835C52.8496 28.5431 52.5326 28.3947 52.1941 28.3639C51.8556 28.3331 51.517 28.4219 51.2372 28.6149L42.1842 34.875H40.4405C40.1387 34.0254 39.5815 33.29 38.8452 32.7696C38.109 32.2493 37.2297 31.9695 36.3281 31.9688H34.8372C35.7989 30.7185 36.3228 29.1867 36.3281 27.6094V21.7969C36.3258 19.8706 35.5596 18.0239 34.1975 16.6619C32.8355 15.2998 30.9888 14.5336 29.0625 14.5312H26.1562C24.8812 14.5355 23.63 14.8764 22.5289 15.5194C21.4279 16.1624 20.5162 17.0847 19.886 18.1931C19.269 17.7641 18.5519 17.5012 17.8037 17.4298C17.0556 17.3584 16.3017 17.4809 15.6147 17.7856C14.9277 18.0902 14.3307 18.5666 13.8813 19.1689C13.4319 19.7713 13.1452 20.4792 13.0489 21.2246C12.9525 21.9699 13.0498 22.7275 13.3313 23.4243C13.6128 24.1211 14.069 24.7336 14.656 25.2029C15.243 25.6722 15.941 25.9823 16.6827 26.1035C17.4244 26.2247 18.1848 26.1528 18.8906 25.8947V27.6094C18.896 29.1867 19.4198 30.7185 20.3815 31.9688H18.8906C16.9644 31.9711 15.1177 32.7373 13.7556 34.0993C12.3935 35.4614 11.6273 37.3081 11.625 39.2344V55.2188H8.71875V11.625H84.2812V55.2188ZM18.8906 21.7969C18.8906 22.0843 18.8054 22.3652 18.6457 22.6042C18.4861 22.8432 18.2591 23.0294 17.9936 23.1394C17.7281 23.2494 17.4359 23.2781 17.154 23.2221C16.8721 23.166 16.6132 23.0276 16.41 22.8244C16.2068 22.6212 16.0684 22.3622 16.0123 22.0804C15.9562 21.7985 15.985 21.5063 16.095 21.2408C16.205 20.9753 16.3912 20.7483 16.6302 20.5886C16.8692 20.429 17.1501 20.3438 17.4375 20.3438C17.8229 20.3438 18.1925 20.4968 18.465 20.7694C18.7375 21.0419 18.8906 21.4115 18.8906 21.7969Z" fill="#FE334A"/>
<path d="M52.3125 17.4375H46.5V20.3438H52.3125V17.4375Z" fill="#FE334A"/>
<path d="M78.4688 26.1562H69.75V29.0625H78.4688V26.1562Z" fill="#FE334A"/>
<path d="M78.4688 37.7812H61.0312V40.6875H78.4688V37.7812Z" fill="#FE334A"/>
<path d="M78.4688 46.5H55.2188V49.4062H78.4688V46.5Z" fill="#FE334A"/>
</svg>
