<svg width="93" height="93" viewBox="0 0 93 93" fill="none" xmlns="http://www.w3.org/2000/svg">
<path d="M71.7963 50.0782L59.462 44.6819L59.7484 44.4736C61.6842 43.0604 63.0606 41.0108 63.6362 38.6842L68.7226 33.5985C69.1275 33.1938 69.4487 32.7132 69.6679 32.1843C69.887 31.6554 69.9998 31.0885 69.9998 30.516C69.9998 29.9434 69.887 29.3765 69.6679 28.8476C69.4487 28.3187 69.1275 27.8382 68.7226 27.4334L68.4729 27.1829C68.0946 26.8097 67.6507 26.5095 67.1634 26.2973C68.8434 24.1627 69.7546 21.524 69.75 18.8076V2.34357L63.0009 4.59279C60.5778 5.40142 58.04 5.81329 55.4855 5.81248H34.7515C33.241 5.81248 31.7454 6.11 30.3499 6.68805C28.9544 7.26611 27.6865 8.11337 26.6184 9.18146C25.5504 10.2496 24.7032 11.5176 24.1253 12.9131C23.5473 14.3086 23.2499 15.8043 23.25 17.3147C23.2458 18.9249 23.5604 20.5199 24.1758 22.0078C24.7911 23.4957 25.6951 24.847 26.8354 25.9837C25.9611 26.1375 25.1553 26.5564 24.5272 27.1836L24.2774 27.4327C23.8725 27.8374 23.5513 28.318 23.3322 28.8469C23.113 29.3758 23.0002 29.9427 23.0002 30.5153C23.0002 31.0878 23.113 31.6547 23.3322 32.1836C23.5513 32.7125 23.8725 33.1931 24.2774 33.5978L29.3638 38.6842C29.9393 41.0108 31.3158 43.0604 33.2516 44.4736L33.538 44.6819L21.2037 50.0782C18.3562 51.3234 15.9335 53.3719 14.2323 55.9728C12.531 58.5738 11.6249 61.6143 11.625 64.7222V90.0937H81.375V64.7222C81.3751 61.6143 80.469 58.5738 78.7677 55.9728C77.0665 53.3719 74.6438 51.3234 71.7963 50.0782ZM60.9447 72.3689L53.7656 83.65V76.018C53.742 66.3049 57.442 56.9522 64.1043 49.8842L68.0903 51.628L65.6205 62.7455L59.334 64.3171L60.9447 72.3689ZM27.3795 62.7455L24.9098 51.6281L28.8957 49.8842C35.558 56.9522 39.258 66.305 39.2344 76.018V83.65L32.0553 72.3689L33.666 64.3171L27.3795 62.7455ZM42.1334 75.7196L44.6273 59.5094C45.209 59.7991 45.8501 59.9499 46.5 59.9499C47.1499 59.9499 47.791 59.7991 48.3727 59.5094L50.8666 75.7196C50.8659 75.8194 50.8594 75.9181 50.8594 76.018V87.1875H42.1406V76.018C42.1406 75.9181 42.1341 75.8194 42.1334 75.7196ZM43.7385 52.8524L45.4627 51.0914V51.0907C45.7095 50.8456 46.0371 50.6987 46.3843 50.6775C46.4229 50.6777 46.4614 50.682 46.5 50.682C46.5386 50.682 46.577 50.6777 46.6156 50.6775C46.963 50.6987 47.2907 50.8458 47.5373 51.0914L49.2629 52.8524C49.5295 53.1264 49.6776 53.4942 49.6755 53.8765C49.6734 54.2587 49.5211 54.6249 49.2516 54.8959L47.5274 56.6201C47.2546 56.892 46.8851 57.0447 46.5 57.0447C46.1148 57.0447 45.7453 56.892 45.4726 56.6201L43.7484 54.8952C43.4787 54.6243 43.3265 54.2581 43.3246 53.8759C43.3228 53.4936 43.4714 53.1259 43.7385 52.8524ZM61.2875 48.6518C56.9805 53.4596 53.8758 59.2208 52.2286 65.4619L50.9709 57.2868L51.3064 56.9514C52.1152 56.1379 52.5719 55.039 52.5781 53.8918C52.5842 52.7447 52.1392 51.641 51.339 50.8189L50.6116 50.0762C52.2037 49.607 53.7039 48.8688 55.047 47.8935L56.7397 46.6622L61.2875 48.6518ZM66.6678 31.543L63.9375 34.2733V29.6645L64.3633 29.2392C64.6358 28.9668 65.0052 28.8137 65.3905 28.8136C65.7758 28.8135 66.1454 28.9663 66.4181 29.2384L66.6678 29.4889C66.8028 29.6237 66.9099 29.7838 66.9829 29.9601C67.056 30.1363 67.0936 30.3252 67.0936 30.516C67.0936 30.7067 67.056 30.8956 66.9829 31.0719C66.9099 31.2481 66.8028 31.4082 66.6678 31.543L66.6678 31.543ZM30.3283 9.94409C31.6646 9.14275 33.1933 8.71924 34.7515 8.71873H55.4855C58.3525 8.7196 61.2008 8.25742 63.9205 7.35005L66.8438 6.37515V18.8076C66.8472 20.0257 66.6088 21.2324 66.1426 22.3578C65.6764 23.4832 64.9915 24.5049 64.1277 25.3637L63.9375 25.5539V23.25C63.9362 22.0942 63.4765 20.9861 62.6593 20.1688C61.842 19.3516 60.7339 18.8919 59.5781 18.8906H59.0275C57.5495 18.8948 56.0853 18.6057 54.7197 18.0401C53.3542 17.4745 52.1144 16.6436 51.0722 15.5955L49.5425 14.0658L47.2266 15.8034C44.5507 17.8013 41.3023 18.8839 37.9629 18.8906H33.4219C32.2661 18.8919 31.158 19.3516 30.3407 20.1688C29.5235 20.9861 29.0638 22.0942 29.0625 23.25V24.1021L28.8993 23.9389C28.027 23.0709 27.3354 22.0385 26.8645 20.9015C26.3937 19.7645 26.153 18.5454 26.1562 17.3147C26.1605 15.8314 26.5465 14.3741 27.2772 13.0831C28.0079 11.7922 29.0587 10.7112 30.3283 9.94409ZM25.9065 30.5156C25.9058 30.3247 25.9431 30.1355 26.0162 29.9592C26.0893 29.7828 26.1967 29.6227 26.3323 29.4882L26.582 29.2392C26.8545 28.9668 27.224 28.8138 27.6093 28.8137C27.9945 28.8135 28.3641 28.9663 28.6368 29.2385L29.0626 29.6642V34.273L26.3323 31.5424C26.1967 31.4081 26.0892 31.2481 26.0161 31.0718C25.943 30.8955 25.9057 30.7065 25.9065 30.5156ZM31.9688 36.2479V23.25C31.9691 22.8647 32.1224 22.4953 32.3948 22.2229C32.6672 21.9505 33.0366 21.7972 33.4219 21.7969H37.9629C41.9307 21.7891 45.7903 20.5024 48.9692 18.1279L49.2729 17.9001C51.8989 20.4104 55.3947 21.8068 59.0275 21.7969H59.5781C59.9634 21.7972 60.3328 21.9505 60.6052 22.2229C60.8776 22.4953 61.0309 22.8647 61.0312 23.25V36.2479C61.0294 37.3935 60.7576 38.5225 60.2379 39.5433C59.7181 40.5642 58.9651 41.4482 58.0399 42.1236L53.3385 45.5435C51.3529 46.9928 48.9582 47.7738 46.5 47.7738C44.0418 47.7738 41.6471 46.9928 39.6615 45.5435L34.9601 42.1236C34.0349 41.4482 33.2819 40.5642 32.7621 39.5433C32.2424 38.5225 31.9706 37.3935 31.9688 36.2479ZM37.953 47.8935C39.2963 48.8689 40.7967 49.6071 42.389 50.0764L41.6624 50.819C40.8618 51.6406 40.4163 52.7441 40.4221 53.8912C40.428 55.0384 40.8847 56.1373 41.6936 56.9507L42.0291 57.2863L40.7714 65.462C39.1242 59.2208 36.0195 53.4597 31.7125 48.6519L36.2603 46.6622L37.953 47.8935ZM14.5312 64.7222C14.5331 62.213 15.2571 59.7574 16.6167 57.6486C17.9763 55.5397 19.9142 53.8667 22.1988 52.8293L24.933 65.1294L30.2715 66.4641L28.9759 72.9436L38.0401 87.1875H29.0625V78.4687H26.1562V87.1875H14.5312V64.7222ZM78.4688 87.1875H66.8438V78.4687H63.9375V87.1875H54.9599L64.0241 72.9436L62.7285 66.4641L68.067 65.1295L70.8012 52.8293C73.0858 53.8667 75.0237 55.5397 76.3833 57.6486C77.7429 59.7574 78.4669 62.213 78.4688 64.7222V87.1875Z" fill="white"/>
</svg>
