<svg width="12" height="12" viewBox="0 0 12 12" fill="none" xmlns="http://www.w3.org/2000/svg">
<path d="M11.7609 2H0.239039C0.107039 2 0 2.10702 0 2.23904V8.53735C0 9.2115 0.548436 9.75996 1.22261 9.75996H10.7774C11.4515 9.75996 12 9.2115 12 8.53735V2.23904C12 2.10702 11.8929 2 11.7609 2ZM11.5219 8.53732C11.5219 8.94786 11.1879 9.28184 10.7774 9.28184H1.22261C0.812084 9.28184 0.478101 8.94783 0.478101 8.53732V2.76057L5.84856 7.15707C5.89262 7.19311 5.94629 7.21114 5.99999 7.21114C6.05359 7.21114 6.10719 7.19316 6.15121 7.15723L10.3068 3.7628C10.409 3.67927 10.4242 3.52871 10.3407 3.42645C10.2572 3.32419 10.1066 3.30901 10.0044 3.39256L6.00015 6.66331L0.887787 2.47808H11.5219V8.53732V8.53732Z" fill="white"/>
<path d="M11.0138 2.99669C10.9303 2.89443 10.7796 2.87924 10.6774 2.96277L10.6057 3.02135C10.5035 3.10488 10.4883 3.25544 10.5718 3.3577C10.619 3.41554 10.6878 3.44552 10.7571 3.44552C10.8102 3.44552 10.8637 3.42785 10.9081 3.39161L10.9798 3.33304C11.0821 3.24953 11.0973 3.09895 11.0138 2.99669Z" fill="white"/>
</svg>
