<svg width="12" height="12" viewBox="0 0 12 12" fill="none" xmlns="http://www.w3.org/2000/svg">
<path d="M5.99998 5.2C6.77198 5.2 7.39998 4.5718 7.39998 3.8C7.39998 3.0282 6.77198 2.4 5.99998 2.4C5.22798 2.4 4.59998 3.0282 4.59998 3.8C4.59998 4.5718 5.22798 5.2 5.99998 5.2ZM5.99998 2.8C6.55138 2.8 6.99998 3.2486 6.99998 3.8C6.99998 4.3514 6.55138 4.8 5.99998 4.8C5.44858 4.8 4.99998 4.3514 4.99998 3.8C4.99998 3.2486 5.44858 2.8 5.99998 2.8Z" fill="white"/>
<path d="M5.96456 10.9514L9.03276 6.52C10.1836 4.9858 10.0172 2.464 8.67656 1.1236C7.95216 0.399 6.98896 0 5.96456 0C4.94016 0 3.97696 0.399 3.25256 1.1234C1.91196 2.4638 1.74556 4.9856 2.89176 6.5138L5.96456 10.9514ZM3.53536 1.4062C4.18436 0.7574 5.04696 0.4 5.96456 0.4C6.88216 0.4 7.74476 0.7574 8.39376 1.4062C9.60376 2.616 9.75276 4.8936 8.70836 6.286L5.96456 10.2486L3.21636 6.28C2.17636 4.8936 2.32556 2.616 3.53536 1.4062Z" fill="white"/>
<path d="M8.4234 8.6014C8.3134 8.588 8.2142 8.6668 8.2014 8.7766C8.1886 8.8864 8.267 8.9858 8.3766 8.9986C10.4798 9.2462 11.6 9.9134 11.6 10.3C11.6 10.8428 9.4696 11.6 6 11.6C2.5304 11.6 0.4 10.8428 0.4 10.3C0.4 9.9134 1.5202 9.2462 3.6234 8.9986C3.733 8.9858 3.8114 8.8862 3.7986 8.7766C3.7856 8.6668 3.6864 8.5876 3.5766 8.6014C1.4708 8.8494 0 9.5478 0 10.3C0 11.1448 2.061 12 6 12C9.939 12 12 11.1448 12 10.3C12 9.5478 10.5292 8.8494 8.4234 8.6014Z" fill="white"/>
</svg>
