<svg width="17" height="17" viewBox="0 0 17 17" fill="none" xmlns="http://www.w3.org/2000/svg">
<g clip-path="url(#clip0)">
<path d="M16.5539 13.1146L13.113 10.8199C12.6764 10.5311 12.0911 10.6261 11.7683 11.0383L10.766 12.327C10.6372 12.4969 10.403 12.5461 10.2167 12.4426L10.026 12.3375C9.39398 11.993 8.60759 11.5641 7.02314 9.97911C5.43868 8.3941 5.00893 7.6071 4.66444 6.97624L4.5599 6.78558C4.45496 6.59927 4.50329 6.36413 4.6732 6.23429L5.96103 5.2323C6.37308 4.90945 6.46826 4.3243 6.17973 3.88751L3.88508 0.446648C3.58938 0.00185859 2.99613 -0.131665 2.53836 0.143515L1.09951 1.00783C0.647421 1.27362 0.315737 1.70406 0.174014 2.20897C-0.34411 4.09682 0.0456698 7.35496 4.8452 12.1551C8.66313 15.9727 11.5054 16.9993 13.459 16.9993C13.9086 17.0013 14.3564 16.9428 14.7905 16.8254C15.2955 16.6839 15.726 16.3521 15.9916 15.8999L16.8568 14.4619C17.1324 14.0041 16.9989 13.4104 16.5539 13.1146ZM16.3686 14.1712L15.5054 15.6101C15.3147 15.9365 15.0051 16.1765 14.6414 16.2798C12.8986 16.7583 9.85378 16.362 5.24604 11.7542C0.638291 7.14648 0.242004 4.10194 0.72049 2.35886C0.823935 1.99475 1.06422 1.68471 1.39103 1.49369L2.82987 0.6305C3.0285 0.510986 3.28598 0.568917 3.41429 0.761931L4.66078 2.63335L5.70699 4.20249C5.83228 4.39196 5.79112 4.64589 5.61238 4.78608L4.32425 5.78807C3.93225 6.08782 3.82031 6.63018 4.06166 7.06063L4.16394 7.24647C4.526 7.9105 4.97613 8.73657 6.61951 10.3797C8.26289 12.0228 9.08869 12.4729 9.75243 12.835L9.93853 12.9375C10.3689 13.1788 10.9113 13.0669 11.2111 12.6749L12.2131 11.3868C12.3533 11.2081 12.6071 11.167 12.7967 11.2922L16.2372 13.5868C16.4304 13.715 16.4883 13.9727 16.3686 14.1712Z" fill="#0C143B"/>
<path d="M9.63289 2.83479C12.2914 2.83774 14.4459 4.99221 14.4489 7.65075C14.4489 7.80721 14.5757 7.93403 14.7321 7.93403C14.8886 7.93403 15.0154 7.80721 15.0154 7.65075C15.0121 4.67941 12.6042 2.27148 9.63289 2.26823C9.47643 2.26823 9.34961 2.39504 9.34961 2.55151C9.34961 2.70797 9.47643 2.83479 9.63289 2.83479Z" fill="#0C143B"/>
<path d="M9.63289 4.53454C11.3531 4.53656 12.7471 5.93056 12.7491 7.65076C12.7491 7.80722 12.876 7.93404 13.0324 7.93404C13.1888 7.93404 13.3157 7.80722 13.3157 7.65076C13.3133 5.61776 11.6658 3.9703 9.63289 3.96798C9.47643 3.96798 9.34961 4.0948 9.34961 4.25126C9.34961 4.40772 9.47643 4.53454 9.63289 4.53454Z" fill="#0C143B"/>
<path d="M9.63289 6.23429C10.4148 6.23522 11.0484 6.86884 11.0494 7.65076C11.0494 7.80722 11.1762 7.93404 11.3326 7.93404C11.4891 7.93404 11.6159 7.80722 11.6159 7.65076C11.6147 6.55608 10.7276 5.66896 9.63289 5.66773C9.47643 5.66773 9.34961 5.79455 9.34961 5.95101C9.34961 6.10748 9.47643 6.23429 9.63289 6.23429Z" fill="#0C143B"/>
</g>
<defs>
<clipPath id="clip0">
<rect width="17" height="17" fill="white"/>
</clipPath>
</defs>
</svg>
