<svg width="18" height="18" viewBox="0 0 18 18" fill="none" xmlns="http://www.w3.org/2000/svg">
<path d="M14.3334 6.70433V4.83333C14.3334 2.16833 11.9407 0 9.00008 0C6.05941 0 3.66675 2.16833 3.66675 4.83333V6.70433C2.53308 6.89967 1.66675 7.88767 1.66675 9.07667V15.5907C1.66675 16.919 2.74775 18 4.07641 18H13.9237C15.2524 18 16.3334 16.919 16.3334 15.5903V9.07633C16.3334 7.88767 15.4671 6.89967 14.3334 6.70433ZM4.33341 4.83333C4.33341 2.53567 6.42675 0.666667 9.00008 0.666667C11.5734 0.666667 13.6667 2.53567 13.6667 4.83333V6.66667H4.33341V4.83333ZM15.6667 15.5903C15.6667 16.5513 14.8847 17.3333 13.9237 17.3333H4.07641C3.11541 17.3333 2.33341 16.5513 2.33341 15.5903V9.07633C2.33341 8.11533 3.11541 7.33333 4.07641 7.33333H13.9237C14.8847 7.33333 15.6667 8.11533 15.6667 9.07633V15.5903Z" fill="white"/>
<path d="M9.00008 9.33334C8.26475 9.33334 7.66675 9.93134 7.66675 10.6667V12.6667C7.66675 13.402 8.26475 14 9.00008 14C9.73541 14 10.3334 13.402 10.3334 12.6667V10.6667C10.3334 9.93134 9.73541 9.33334 9.00008 9.33334ZM9.66675 12.6667C9.66675 13.0343 9.36775 13.3333 9.00008 13.3333C8.63241 13.3333 8.33341 13.0343 8.33341 12.6667V10.6667C8.33341 10.299 8.63241 10 9.00008 10C9.36775 10 9.66675 10.299 9.66675 10.6667V12.6667Z" fill="white"/>
</svg>
