<svg height="18" viewBox="0 0 512 512" width="18" xmlns="http://www.w3.org/2000/svg">
<path d="M436.813 75.188C388.327 26.703 324.113 0 256 0 115.031 0 0 115.047 0 256c0 41.71 10.242 82.887 29.676 119.492L.44 493.391a14.998 14.998 0 003.954 14.214 14.99 14.99 0 0014.214 3.954l117.899-29.239C173.113 501.754 214.289 512 256 512c68.113 0 132.328-26.703 180.813-75.188C485.296 388.324 512 324.113 512 256s-26.703-132.328-75.188-180.813zM256 482c-38.594 0-76.656-9.934-110.082-28.719a15.012 15.012 0 00-10.961-1.484l-99.406 24.652 24.648-99.41c.922-3.707.39-7.629-1.48-10.96C39.929 332.655 30 294.593 30 256 30 131.383 131.383 30 256 30s226 101.383 226 226-101.383 226-226 226zm0 0"/><path d="M391.367 301.547c-9.941-9.945-20.887-19.985-33.531-26.082-18.895-9.106-36.922-6.496-50.766 7.347-6.3 6.301-14.968 18.723-19.957 24.833-12.867-2.153-38.574-23.829-48.781-34-10.168-10.208-31.828-35.918-33.98-48.758 6.074-4.961 18.539-13.664 24.836-19.957 13.843-13.844 16.453-31.875 7.347-50.766-6.097-12.648-16.137-23.59-26.074-33.527-20.242-20.668-51.465-22.192-78.414 4.761-20.14 20.137-38.082 57.47-9.207 120.965 17.086 37.563 44.62 70.785 58.195 84.496l.106.106c13.71 13.578 46.933 41.113 84.496 58.195 42.422 19.293 87.89 23.871 120.968-9.203 27.356-27.36 25.051-58.543 4.762-78.41zm-25.976 57.195c-19.536 19.535-48.918 20.582-87.336 3.11-33.727-15.34-64.266-40.79-75.754-52.153-11.363-11.492-36.813-42.027-52.153-75.754-17.472-38.418-16.425-67.8 3.11-87.336 11.402-11.402 24.527-16.46 35.77-4.98l.214.219c26.63 26.629 24.738 35.859 18.73 41.867-5.331 5.332-21.093 16.035-26.187 21.129-11.957 11.953-9.73 30.468 6.613 55.027 9.754 14.66 22.637 28.887 28.715 34.98l.032.036c6.097 6.078 20.32 18.96 34.98 28.715 24.563 16.343 43.074 18.566 55.027 6.613 5.098-5.098 15.797-20.856 21.13-26.188 4.062-4.062 8.066-5.613 16.523-1.535 9.804 4.727 20.3 15.223 25.347 20.266l.22.215c11.57 11.332 6.425 24.363-4.981 35.77zm0 0" fill="#0C143B"/>
</svg>